<?xml version="1.0" standalone="no"?>
<!DOCTYPE svg PUBLIC "-//W3C//DTD SVG 20010904//EN"
 "http://www.w3.org/TR/2001/REC-SVG-20010904/DTD/svg10.dtd">
<svg version="1.0" xmlns="http://www.w3.org/2000/svg"
 width="1280.000000pt" height="376.000000pt" viewBox="0 0 1280.000000 376.000000"
 preserveAspectRatio="xMidYMid meet">

<g transform="translate(0.000000,376.000000) scale(0.100000,-0.100000)"
fill="#000000" stroke="none">
<path d="M390 3644 c-71 -19 -127 -52 -184 -110 -59 -60 -93 -130 -106 -219
-7 -48 -10 -527 -8 -1495 l3 -1425 23 -58 c47 -116 148 -209 262 -241 50 -15
624 -16 6031 -14 l5975 3 76 38 c87 43 142 98 185 186 l28 56 0 1505 0 1505
-32 60 c-56 108 -145 180 -258 209 -53 14 -662 16 -6000 15 -5196 0 -5947 -2
-5995 -15z m2458 -589 c13 -147 -112 -356 -259 -435 -71 -37 -177 -63 -196
-48 -30 24 -5 157 49 260 38 73 126 166 188 199 77 41 154 69 185 66 27 -2 30
-6 33 -42z m3873 2 c5 -9 8 -148 7 -309 l-3 -293 -45 0 -45 0 -3 300 c-3 326
-3 322 53 320 15 -1 31 -9 36 -18z m1561 -277 c1 -159 2 -298 2 -307 1 -14 -8
-19 -41 -21 -40 -3 -43 -1 -43 22 0 32 -3 32 -43 2 -61 -46 -153 -45 -208 2
-39 32 -79 122 -79 176 0 59 30 134 70 177 55 58 147 73 205 33 11 -8 23 -14
27 -14 5 0 8 50 8 110 l0 110 50 0 50 0 2 -290z m2188 181 c0 -63 4 -112 10
-116 6 -3 22 3 36 14 14 11 40 23 58 26 42 8 111 -19 135 -54 29 -40 43 -133
39 -261 l-3 -115 -47 -3 -48 -3 0 148 c0 139 -1 150 -23 177 -33 41 -91 40
-129 -3 -28 -31 -28 -32 -28 -176 l0 -145 -50 0 -50 0 0 310 0 310 50 0 50 0
0 -109z m-5884 52 c95 -45 144 -132 144 -258 0 -88 -27 -166 -74 -214 -32 -33
-50 -44 -126 -80 -16 -8 -71 -11 -155 -9 l-130 3 -3 284 c-2 221 1 286 10 293
7 4 73 8 145 8 123 0 136 -2 189 -27z m5554 -84 c5 -44 5 -44 50 -49 44 -5 45
-6 45 -40 0 -34 -1 -35 -45 -40 l-45 -5 -3 -110 c-3 -131 7 -158 58 -165 29
-4 36 -10 38 -32 3 -23 -2 -30 -25 -39 -39 -15 -106 -3 -130 24 -33 36 -43 84
-43 208 l0 118 -27 3 c-25 3 -28 7 -28 38 0 31 3 35 28 38 22 3 27 8 27 31 0
30 23 56 55 64 34 8 40 2 45 -44z m-4975 -74 c63 -37 90 -93 90 -190 0 -69 -4
-86 -27 -126 -40 -68 -86 -92 -178 -93 -78 0 -111 12 -153 59 -32 36 -57 105
-57 158 1 61 41 151 81 180 71 51 168 57 244 12z m1213 15 c35 -16 47 -29 68
-74 23 -51 24 -63 22 -198 l-3 -143 -47 -3 c-34 -2 -48 1 -48 10 0 7 -1 77 -3
155 -3 166 -11 183 -82 183 -32 0 -47 -6 -66 -26 -23 -24 -24 -34 -29 -172
l-5 -147 -42 -3 -43 -3 -2 170 c-1 94 -2 190 -3 214 0 40 1 42 32 45 23 2 35
-3 46 -19 l16 -21 52 26 c63 31 80 32 137 6z m769 4 c63 -21 97 -54 124 -120
40 -99 6 -219 -80 -279 -39 -27 -49 -30 -122 -29 -72 0 -82 3 -116 30 -138
110 -104 349 56 398 61 19 81 19 138 0z m475 6 c52 -15 92 -52 106 -98 7 -22
12 -102 12 -186 l0 -146 -39 0 c-31 0 -41 4 -46 20 -6 20 -7 20 -37 -2 -24
-16 -46 -22 -94 -22 -56 -1 -66 2 -93 28 -28 27 -31 36 -31 88 0 93 38 132
155 157 85 19 85 19 85 36 0 21 -34 53 -66 61 -16 4 -48 0 -76 -9 -46 -15 -49
-14 -62 5 -20 28 -11 43 32 56 77 24 104 26 154 12z m1374 -25 c26 -15 54 -43
70 -70 24 -41 26 -53 23 -129 -4 -75 -8 -89 -34 -127 -46 -66 -85 -84 -177
-83 -71 0 -81 3 -115 31 -61 49 -83 96 -83 181 0 52 5 83 19 110 58 113 188
151 297 87z m514 19 c80 -32 102 -97 98 -284 l-3 -135 -44 -3 c-28 -2 -47 1
-52 10 -5 7 -9 78 -9 157 0 168 -5 181 -75 181 -32 0 -47 -6 -66 -26 -23 -24
-24 -34 -29 -172 l-5 -147 -42 -3 c-30 -2 -43 1 -43 10 0 7 -1 103 -2 213 l-3
200 32 3 c23 2 35 -3 46 -19 l16 -21 52 26 c62 30 75 31 129 10z m1637 1 c76
-32 116 -95 111 -178 l-3 -52 -137 -3 -138 -3 0 -26 c0 -17 13 -38 37 -61 l37
-35 88 5 88 5 0 -33 c0 -18 -5 -36 -10 -39 -6 -4 -54 -7 -108 -7 -84 -1 -102
2 -135 22 -60 36 -88 94 -88 183 0 89 16 134 65 179 61 56 127 70 193 43z
m-5693 -17 c9 -12 16 -37 16 -55 0 -17 5 -35 10 -38 6 -3 10 -20 10 -37 0 -18
4 -45 10 -62 5 -17 12 -49 16 -71 6 -40 6 -40 18 -15 7 14 21 54 30 90 10 36
22 73 27 82 5 10 9 26 9 37 0 10 7 35 15 55 14 34 19 37 51 34 35 -3 37 -5 60
-73 13 -38 24 -80 24 -92 0 -12 5 -25 10 -28 6 -3 10 -19 10 -35 0 -38 9 -60
25 -60 14 0 25 22 25 52 0 25 37 162 56 206 12 27 19 32 48 32 19 0 37 -4 40
-9 6 -9 -56 -219 -75 -253 -5 -10 -9 -29 -9 -42 0 -14 -4 -28 -10 -31 -5 -3
-10 -16 -10 -28 0 -41 -27 -67 -70 -67 l-38 0 -21 65 c-12 35 -21 73 -21 84 0
11 -4 22 -9 25 -4 3 -11 23 -15 44 -3 22 -12 45 -20 51 -16 13 -13 18 -36 -74
-7 -27 -17 -54 -21 -59 -5 -6 -9 -22 -9 -36 0 -14 -4 -30 -9 -35 -5 -6 -11
-21 -13 -35 -3 -22 -8 -25 -51 -28 -32 -2 -49 1 -51 10 -3 7 -14 47 -26 88
-13 41 -28 93 -35 115 -7 22 -18 60 -25 85 -7 25 -17 57 -22 72 -15 41 -4 58
36 58 25 0 39 -7 50 -22z m-3279 -346 c44 -16 98 -37 120 -48 44 -20 174 -25
197 -7 7 6 27 15 43 21 17 5 61 22 100 36 60 22 86 26 185 26 125 0 163 -9
265 -63 62 -33 175 -131 175 -151 0 -6 -26 -35 -58 -63 -202 -177 -242 -451
-98 -668 39 -58 92 -109 151 -144 74 -45 76 -48 58 -89 -9 -21 -20 -48 -26
-62 -42 -105 -165 -296 -250 -386 -116 -124 -234 -146 -402 -73 -131 56 -257
62 -365 17 -14 -6 -34 -14 -45 -18 -11 -4 -37 -15 -58 -24 -56 -24 -175 -22
-226 5 -60 31 -121 89 -190 181 -68 89 -161 241 -161 261 0 7 -4 17 -8 22 -22
25 -80 196 -112 330 -26 112 -23 325 6 475 12 60 93 208 147 267 148 161 363
222 552 155z m5905 -488 c36 -8 75 -18 87 -21 41 -10 47 -28 29 -82 -9 -28
-16 -57 -16 -65 0 -26 -19 -28 -82 -6 -78 27 -228 31 -274 7 -102 -53 -125
-176 -46 -249 25 -24 108 -70 175 -97 105 -43 199 -102 238 -152 79 -100 90
-230 32 -366 -32 -74 -114 -138 -222 -173 -49 -15 -91 -20 -181 -20 -122 0
-183 12 -267 53 -45 21 -49 27 -34 55 5 9 15 38 22 65 12 49 28 58 67 38 71
-36 134 -50 221 -51 84 0 139 16 179 54 81 76 82 164 3 249 -22 24 -136 87
-156 87 -19 0 -147 69 -189 102 -57 45 -92 92 -118 160 -22 58 -23 107 -3 173
59 195 288 297 535 239z m-3322 -16 c5 -7 22 -53 37 -103 15 -49 31 -99 35
-110 4 -11 29 -87 55 -170 26 -82 51 -159 55 -170 5 -11 14 -38 20 -60 6 -22
15 -49 20 -60 4 -11 13 -40 20 -65 7 -25 18 -61 26 -80 7 -19 23 -66 35 -105
12 -38 25 -79 29 -90 21 -58 50 -155 50 -169 0 -14 -14 -16 -93 -16 -98 0
-117 7 -117 45 0 12 -4 25 -8 30 -5 6 -26 64 -46 130 -21 66 -41 127 -45 135
-11 21 -389 28 -395 8 -2 -7 -21 -67 -41 -133 -20 -66 -40 -128 -46 -137 -5
-10 -9 -26 -9 -36 0 -34 -21 -42 -111 -42 -48 0 -90 3 -92 8 -5 8 10 59 88
297 28 88 66 205 84 260 82 260 185 577 202 623 8 21 13 22 123 22 79 0 117
-4 124 -12z m3930 -220 l3 -98 99 0 c114 0 114 0 108 -96 l-3 -49 -100 -5
-100 -5 0 -251 c0 -317 -2 -312 125 -323 l65 -6 3 -68 c3 -64 2 -68 -23 -77
-15 -6 -64 -10 -109 -10 -135 0 -202 42 -242 151 -13 35 -17 95 -20 304 -3
143 -4 265 -4 272 0 8 -21 13 -57 15 l-58 3 0 70 0 70 58 3 c35 2 57 8 58 15
1 7 0 37 -1 68 -1 49 1 59 22 73 12 9 40 19 61 23 20 3 40 10 43 15 3 5 20 8
37 6 l32 -3 3 -97z m-2752 -123 c87 -47 155 -137 193 -256 17 -54 14 -265 -5
-318 -31 -91 -57 -136 -109 -187 -77 -77 -143 -104 -258 -104 -77 0 -98 4
-144 27 -30 14 -61 37 -70 49 -8 13 -19 21 -24 18 -5 -3 -9 -102 -9 -220 l0
-214 -95 0 -95 0 -2 555 c-1 305 -2 581 -3 613 l0 57 60 3 c93 5 103 0 110
-56 4 -26 8 -52 10 -58 2 -7 28 13 59 42 31 30 64 54 74 54 10 0 22 4 28 9 14
15 62 20 150 16 64 -3 92 -9 130 -30z m994 3 c90 -46 166 -147 200 -263 13
-47 9 -262 -7 -315 -34 -115 -117 -216 -216 -263 -49 -23 -70 -27 -149 -27
-78 0 -99 4 -145 27 -30 14 -61 37 -70 50 -8 12 -19 23 -24 23 -5 0 -10 -98
-11 -217 l-3 -218 -95 0 -95 0 0 610 0 610 68 3 c39 2 74 -2 82 -8 7 -6 16
-35 20 -65 3 -30 8 -55 11 -55 2 0 22 20 44 44 69 74 136 97 265 91 59 -3 93
-10 125 -27z m2658 11 c149 -48 256 -201 269 -384 15 -216 -87 -399 -261 -469
-57 -22 -81 -26 -174 -26 -75 0 -115 5 -136 15 -15 8 -32 15 -38 15 -19 0
-109 68 -139 106 -80 99 -118 250 -98 384 27 175 123 298 284 361 53 22 223
20 293 -2z m891 7 c7 -9 11 -42 9 -88 l-3 -73 -55 -6 c-98 -9 -152 -45 -187
-124 -15 -34 -18 -80 -23 -310 l-5 -270 -83 -3 c-53 -2 -89 1 -98 9 -11 9 -13
83 -11 438 l2 426 80 0 80 0 3 -72 c3 -78 13 -90 36 -45 28 54 88 102 156 125
31 11 88 7 99 -7z m676 -21 c86 -47 125 -96 174 -218 14 -35 26 -186 17 -221
l-6 -26 -285 0 c-182 0 -286 -4 -290 -10 -7 -11 7 -64 31 -117 15 -34 59 -75
107 -100 42 -21 186 -28 262 -13 106 22 106 22 123 -38 19 -68 13 -75 -88
-102 -96 -25 -270 -28 -332 -4 -129 48 -198 107 -250 211 -29 60 -32 75 -36
183 -5 128 7 190 55 284 29 56 112 144 158 165 83 38 96 40 215 36 81 -2 103
-7 145 -30z"/>
<path d="M8021 2784 c-38 -34 -55 -96 -45 -161 14 -96 107 -135 173 -74 30 28
31 32 31 113 0 102 -20 136 -86 145 -35 4 -46 1 -73 -23z"/>
<path d="M4344 2957 c-2 -7 -3 -107 -2 -222 l3 -210 35 -3 c54 -6 135 18 174
50 53 44 68 84 68 183 0 118 -31 170 -122 202 -47 17 -149 17 -156 0z"/>
<path d="M5008 2804 c-77 -41 -88 -204 -18 -266 97 -87 207 55 157 202 -12 35
-67 80 -96 80 -9 -1 -28 -7 -43 -16z"/>
<path d="M7034 2806 c-57 -25 -87 -129 -59 -206 20 -57 40 -78 81 -86 69 -13
124 54 124 149 0 69 -19 111 -63 137 -37 23 -42 24 -83 6z"/>
<path d="M7558 2653 c-37 -6 -81 -58 -72 -87 8 -29 42 -56 69 -56 13 0 37 12
54 26 27 22 31 32 31 75 0 53 -1 54 -82 42z"/>
<path d="M8854 2811 c-79 -33 -106 -171 -49 -257 34 -52 118 -56 154 -6 35 49
44 106 27 166 -23 78 -78 119 -132 97z"/>
<path d="M11021 2793 c-17 -16 -33 -40 -37 -55 l-6 -28 96 0 c95 0 96 0 96 24
0 13 -13 38 -29 55 -38 40 -79 41 -120 4z"/>
<path d="M4627 1833 c-4 -8 -18 -59 -38 -135 -6 -24 -15 -54 -19 -68 -4 -14
-13 -45 -20 -70 -7 -25 -17 -56 -22 -70 -17 -42 -48 -144 -48 -157 0 -10 36
-13 149 -13 83 0 152 4 155 9 6 8 -26 112 -44 143 -6 10 -10 27 -10 38 0 11
-4 28 -9 38 -5 9 -19 51 -31 92 -12 41 -26 89 -31 106 -5 17 -9 42 -9 57 0 25
-15 45 -23 30z"/>
<path d="M5620 1519 c-39 -22 -81 -77 -98 -128 -7 -19 -12 -88 -12 -155 0
-142 14 -182 79 -238 85 -72 211 -62 285 22 48 55 68 122 69 231 1 90 -1 101
-32 164 -45 92 -97 125 -190 124 -46 0 -77 -7 -101 -20z"/>
<path d="M6628 1523 c-38 -19 -87 -80 -104 -128 -16 -47 -20 -290 -4 -300 6
-3 10 -14 10 -23 1 -21 34 -59 77 -90 61 -43 176 -39 237 9 34 27 76 92 76
118 0 11 5 23 10 26 14 9 12 203 -3 245 -38 109 -105 161 -208 159 -35 -1 -76
-8 -91 -16z"/>
<path d="M9365 1548 c-39 -14 -100 -72 -121 -117 -28 -58 -43 -176 -32 -251
23 -151 104 -240 219 -240 133 0 221 124 221 312 0 81 -5 111 -35 178 -45 103
-152 153 -252 118z"/>
<path d="M10940 1560 c-43 -6 -87 -33 -118 -71 -27 -33 -64 -127 -56 -140 7
-12 391 -12 398 0 3 5 0 33 -7 62 -9 42 -22 64 -58 100 -48 49 -83 60 -159 49z"/>
</g>
</svg>
