<?xml version="1.0" standalone="no"?>
<!DOCTYPE svg PUBLIC "-//W3C//DTD SVG 20010904//EN"
 "http://www.w3.org/TR/2001/REC-SVG-20010904/DTD/svg10.dtd">
<svg version="1.0" xmlns="http://www.w3.org/2000/svg"
 width="532.000000pt" height="173.000000pt" viewBox="0 0 532.000000 173.000000"
 preserveAspectRatio="xMidYMid meet">

<g transform="translate(0.000000,173.000000) scale(0.100000,-0.100000)"
fill="#000000" stroke="none">
<path d="M321 1689 c-49 -15 -124 -95 -139 -149 -10 -34 -12 -201 -10 -700 l3
-655 27 -46 c32 -54 86 -94 148 -108 62 -15 4698 -15 4760 0 62 14 116 54 148
108 l27 46 3 655 c2 499 0 666 -10 700 -15 57 -90 134 -144 149 -51 14 -4763
14 -4813 0z m619 -529 c184 -107 390 -225 457 -264 68 -39 123 -76 123 -83 0
-15 -30 -36 -148 -103 l-94 -53 -77 77 -76 76 -265 -266 c-146 -146 -273 -270
-282 -275 -17 -9 -18 14 -18 426 l0 435 117 0 118 0 -115 116 c-65 66 -106
114 -95 112 11 -3 171 -92 355 -198z m899 138 c12 -34 21 -66 21 -70 0 -17
-32 -7 -37 12 -3 13 -14 20 -28 20 -15 0 -26 -8 -30 -20 -6 -19 -35 -29 -35
-12 0 4 10 35 22 70 19 50 27 62 44 62 18 0 26 -12 43 -62z m102 22 c13 -22
27 -40 32 -40 5 0 6 18 2 40 -6 33 -4 40 9 40 13 0 16 -13 16 -70 0 -86 -14
-91 -59 -22 l-31 47 0 -47 c0 -27 -4 -48 -10 -48 -6 0 -10 30 -10 70 0 83 16
93 51 30z m192 28 c28 -22 32 -69 7 -101 -17 -21 -30 -27 -61 -27 l-39 0 0 70
0 70 38 0 c21 0 46 -6 55 -12z m148 -4 c10 -12 10 -20 1 -35 -10 -15 -9 -25 3
-49 19 -37 19 -40 -4 -40 -12 0 -21 9 -25 25 -4 14 -13 25 -21 25 -9 0 -15
-10 -15 -25 0 -16 -6 -25 -15 -25 -12 0 -15 14 -15 70 l0 70 39 0 c23 0 44 -6
52 -16z m151 -1 c23 -20 24 -80 1 -105 -20 -22 -76 -24 -97 -2 -21 20 -20 83
1 106 20 22 70 23 95 1z m78 -53 c0 -49 -4 -70 -12 -70 -9 0 -13 21 -13 70 0
49 4 70 13 70 8 0 12 -21 12 -70z m140 50 c47 -47 11 -120 -60 -120 l-40 0 0
70 0 70 40 0 c27 0 47 -7 60 -20z m206 -52 c21 -64 22 -68 5 -68 -10 0 -21 9
-24 20 -3 13 -14 20 -30 20 -16 0 -26 -7 -30 -20 -3 -11 -13 -20 -22 -20 -12
0 -15 5 -10 18 4 9 16 41 27 70 16 43 24 53 41 50 15 -2 26 -19 43 -70z m132
63 c8 -5 12 -21 10 -37 -2 -23 -10 -31 -35 -39 -25 -7 -33 -15 -33 -32 0 -14
-6 -23 -15 -23 -12 0 -15 14 -15 70 l0 70 38 0 c20 0 43 -4 50 -9z m126 3 c17
-6 21 -40 8 -61 -4 -6 -20 -15 -35 -18 -20 -5 -27 -13 -27 -31 0 -15 -6 -24
-15 -24 -12 0 -15 14 -15 70 l0 70 34 0 c19 0 41 -3 50 -6z m208 -11 c23 -20
24 -80 1 -105 -20 -22 -85 -24 -103 -3 -18 21 -15 83 6 106 21 23 71 25 96 2z
m108 -26 l25 -42 3 43 c2 28 8 42 18 42 11 0 14 -16 14 -70 0 -84 -15 -92 -57
-28 l-28 42 -3 -42 c-2 -29 -8 -42 -18 -42 -11 0 -14 16 -14 70 0 60 2 70 18
70 9 0 28 -18 42 -43z m6 -233 c-14 -14 -16 -45 -14 -232 l3 -217 28 -3 c50
-6 17 -22 -46 -22 l-62 0 3 230 3 230 -28 0 -28 1 25 14 c14 8 49 14 78 15 49
0 52 -1 38 -16z m-1312 -18 c26 -8 54 -20 62 -27 13 -10 11 -16 -12 -41 -26
-26 -63 -40 -49 -18 17 27 -73 80 -135 80 -76 0 -155 -60 -180 -136 -18 -55
-7 -145 25 -199 52 -89 163 -140 253 -116 l42 12 0 54 0 55 -47 0 c-47 1 -47
1 -23 15 15 9 54 14 99 15 70 0 73 -1 58 -18 -10 -11 -17 -40 -19 -77 l-3 -59
-60 -13 c-93 -19 -222 -16 -270 6 -86 40 -137 124 -137 226 0 106 50 185 147
231 59 28 173 33 249 10z m2286 -236 l0 -230 -25 0 -25 0 0 230 0 230 25 0 25
0 0 -230z m-1900 78 c114 -58 115 -222 2 -286 -72 -40 -176 -23 -222 36 -67
85 -36 208 64 253 55 25 102 24 156 -3z m387 -4 c46 -35 66 -70 70 -126 7
-100 -68 -178 -172 -178 -100 0 -165 66 -165 166 0 65 29 111 90 142 55 29
136 26 177 -4z m798 11 c36 -18 64 -60 49 -74 -12 -12 -153 -68 -182 -73 l-23
-3 23 -44 c37 -73 96 -100 168 -78 l25 8 -28 -25 c-23 -21 -38 -26 -84 -26
-100 0 -163 65 -163 167 0 65 27 112 80 140 50 27 89 29 135 8z m107 -12 c-5
-23 -7 -25 -10 -8 -2 11 -9 23 -16 27 -6 5 -3 8 10 8 18 0 20 -4 16 -27z m48
17 c9 13 10 13 10 0 0 -8 -5 -22 -10 -30 -9 -13 -11 -13 -20 0 -5 8 -10 22
-10 30 0 13 1 13 10 0 9 -13 11 -13 20 0z m371 -6 c92 -47 90 -262 -2 -309
-40 -21 -121 -16 -149 10 -20 18 -20 17 -20 -73 0 -91 0 -92 -25 -92 l-25 0 0
235 c0 224 1 235 19 235 10 0 22 -7 25 -16 6 -15 8 -15 24 -2 36 32 105 37
153 12z m486 -18 c22 -26 23 -35 23 -162 0 -127 -1 -134 -20 -134 -11 0 -20 7
-20 15 0 19 -3 19 -42 -5 -49 -29 -122 -27 -153 5 -27 26 -34 89 -15 124 14
27 83 51 145 51 54 0 55 0 55 30 0 17 -9 39 -21 51 -22 22 -40 22 -120 3 -19
-4 -28 -1 -32 11 -10 25 47 46 117 42 50 -3 63 -8 83 -31z m-1413 9 c-10 -8
-28 -15 -38 -15 -18 0 -18 -1 -3 -17 40 -46 33 -107 -18 -159 -19 -19 -35 -38
-35 -43 0 -4 23 -30 50 -58 40 -41 50 -57 50 -84 0 -79 -70 -132 -175 -133
-70 -1 -118 16 -140 50 -44 67 14 140 125 158 34 6 36 8 32 41 -4 29 -8 35
-29 35 -59 0 -102 46 -103 108 0 92 62 131 209 132 86 0 93 -1 75 -15z m1572
-118 l49 -134 32 91 c65 181 62 176 93 176 l28 0 -79 -207 c-90 -239 -107
-263 -184 -263 -38 0 -45 3 -45 20 0 16 7 20 33 20 37 0 66 25 86 75 11 28 6
44 -54 189 -36 87 -65 160 -65 162 0 2 13 4 28 4 27 0 30 -6 78 -133z"/>
<path d="M1787 1316 c-11 -27 -8 -36 8 -36 16 0 17 5 6 34 -7 18 -8 18 -14 2z"/>
<path d="M2070 1290 c0 -56 17 -67 44 -28 20 29 20 34 -4 58 -31 31 -40 24
-40 -30z"/>
<path d="M2220 1315 c0 -23 2 -25 21 -15 23 13 21 33 -4 38 -12 3 -17 -4 -17
-23z"/>
<path d="M2362 1328 c-17 -17 -15 -63 4 -79 22 -18 48 0 52 35 6 45 -29 71
-56 44z"/>
<path d="M2580 1290 c0 -43 3 -50 20 -50 36 0 52 56 24 84 -30 31 -44 20 -44
-34z"/>
<path d="M2800 1323 c0 -6 -3 -18 -6 -27 -4 -11 -1 -16 10 -16 9 0 16 6 16 13
0 16 -20 46 -20 30z"/>
<path d="M2930 1315 c0 -27 6 -30 29 -16 17 11 7 41 -14 41 -9 0 -15 -9 -15
-25z"/>
<path d="M3060 1315 c0 -27 6 -30 29 -16 17 11 7 41 -14 41 -9 0 -15 -9 -15
-25z"/>
<path d="M3251 1326 c-30 -36 9 -105 43 -77 23 19 20 68 -3 81 -25 13 -26 13
-40 -4z"/>
<path d="M2385 901 c-32 -14 -55 -46 -62 -83 -8 -53 21 -141 58 -172 35 -30
58 -32 99 -11 108 56 16 312 -95 266z"/>
<path d="M2750 898 c-14 -7 -33 -30 -43 -50 -16 -32 -17 -45 -8 -91 7 -29 20
-67 31 -85 51 -84 156 -60 167 38 14 120 -70 226 -147 188z"/>
<path d="M3594 899 c-12 -4 -29 -18 -38 -31 -19 -27 -22 -93 -3 -85 135 54
148 66 110 99 -26 22 -45 26 -69 17z"/>
<path d="M4100 877 c-33 -17 -50 -53 -50 -110 0 -88 36 -137 101 -137 30 0 77
52 84 93 10 54 -3 106 -35 139 -31 30 -61 35 -100 15z"/>
<path d="M4590 749 c-25 -5 -51 -16 -57 -26 -35 -47 7 -101 71 -89 44 8 68 37
70 83 1 44 -9 47 -84 32z"/>
<path d="M3096 879 c-68 -53 2 -206 79 -171 57 26 53 116 -6 166 -37 31 -39
31 -73 5z"/>
<path d="M3095 575 c-22 -8 -41 -15 -41 -15 -1 0 -7 -14 -14 -31 -11 -27 -11
-34 7 -57 24 -32 86 -55 128 -48 83 16 102 80 40 135 -39 34 -61 37 -120 16z"/>
</g>
</svg>
